<?xml version="1.0" standalone="no"?><!-- Generator: Gravit.io --><svg xmlns="http://www.w3.org/2000/svg" xmlns:xlink="http://www.w3.org/1999/xlink" style="isolation:isolate" viewBox="982.5 120.926 1035 154.149" width="1035" height="154.149"><path d=" M 1026.543 275.074 L 982.5 275.074 L 982.5 120.926 L 1026.543 120.926 L 1026.543 142.947 L 1048.564 142.947 L 1048.564 164.968 L 1070.585 164.968 L 1070.585 142.947 L 1092.606 142.947 L 1092.606 120.926 L 1136.649 120.926 L 1136.649 275.074 L 1092.606 275.074 L 1092.606 186.989 L 1070.585 186.989 L 1070.585 231.032 L 1048.564 231.032 L 1048.564 186.989 L 1026.543 186.989 L 1026.543 275.074 Z  M 1202.713 275.074 L 1158.67 275.074 L 1158.67 164.968 L 1180.691 164.968 L 1180.691 142.947 L 1202.713 142.947 L 1202.713 120.926 L 1268.777 120.926 L 1268.777 142.947 L 1290.798 142.947 L 1290.798 164.968 L 1312.819 164.968 L 1312.819 275.074 L 1268.777 275.074 L 1268.777 231.032 L 1202.713 231.032 L 1202.713 275.074 Z  M 1202.713 164.968 L 1202.713 209.011 L 1268.777 209.011 L 1268.777 164.968 L 1246.755 164.968 L 1246.755 142.947 L 1224.734 142.947 L 1224.734 164.968 L 1202.713 164.968 Z  M 1444.947 275.074 L 1400.904 275.074 L 1400.904 142.947 L 1356.862 142.947 L 1356.862 120.926 L 1488.989 120.926 L 1488.989 142.947 L 1444.947 142.947 L 1444.947 275.074 Z  M 1555.053 275.074 L 1511.011 275.074 L 1511.011 120.926 L 1643.138 120.926 L 1643.138 142.947 L 1665.16 142.947 L 1665.16 209.011 L 1621.117 209.011 L 1621.117 231.032 L 1643.138 231.032 L 1643.138 253.053 L 1665.16 253.053 L 1665.16 275.074 L 1599.096 275.074 L 1599.096 253.053 L 1577.074 253.053 L 1577.074 231.032 L 1555.053 231.032 L 1555.053 275.074 Z  M 1555.053 142.947 L 1555.053 209.011 L 1599.096 209.011 L 1599.096 186.989 L 1621.117 186.989 L 1621.117 142.947 L 1555.053 142.947 Z  M 1841.33 275.074 L 1709.202 275.074 L 1709.202 253.053 L 1753.245 253.053 L 1753.245 142.947 L 1709.202 142.947 L 1709.202 120.926 L 1841.33 120.926 L 1841.33 142.947 L 1797.287 142.947 L 1797.287 253.053 L 1841.33 253.053 L 1841.33 275.074 Z  M 1907.394 275.074 L 1863.351 275.074 L 1863.351 231.032 L 1885.372 231.032 L 1885.372 209.011 L 1907.394 209.011 L 1907.394 186.989 L 1885.372 186.989 L 1885.372 164.968 L 1863.351 164.968 L 1863.351 120.926 L 1907.394 120.926 L 1907.394 164.968 L 1929.415 164.968 L 1929.415 186.989 L 1951.436 186.989 L 1951.436 164.968 L 1973.457 164.968 L 1973.457 120.926 L 2017.5 120.926 L 2017.5 164.968 L 1995.479 164.968 L 1995.479 186.989 L 1973.457 186.989 L 1973.457 209.011 L 1995.479 209.011 L 1995.479 231.032 L 2017.5 231.032 L 2017.5 275.074 L 1973.457 275.074 L 1973.457 231.032 L 1951.436 231.032 L 1951.436 209.011 L 1929.415 209.011 L 1929.415 231.032 L 1907.394 231.032 L 1907.394 275.074 Z " fill-rule="evenodd" fill="rgb(255,252,0)"/></svg>