<?xml version="1.0" standalone="no"?><!-- Generator: Gravit.io --><svg xmlns="http://www.w3.org/2000/svg" xmlns:xlink="http://www.w3.org/1999/xlink" style="isolation:isolate" viewBox="982.5 455.926 1035 154.149" width="1035" height="154.149"><path d=" M 1026.543 610.074 L 982.5 610.074 L 982.5 455.926 L 1026.543 455.926 L 1026.543 477.947 L 1048.564 477.947 L 1048.564 499.968 L 1070.585 499.968 L 1070.585 477.947 L 1092.606 477.947 L 1092.606 455.926 L 1136.649 455.926 L 1136.649 610.074 L 1092.606 610.074 L 1092.606 521.989 L 1070.585 521.989 L 1070.585 566.032 L 1048.564 566.032 L 1048.564 521.989 L 1026.543 521.989 L 1026.543 610.074 Z  M 1202.713 610.074 L 1158.67 610.074 L 1158.67 499.968 L 1180.691 499.968 L 1180.691 477.947 L 1202.713 477.947 L 1202.713 455.926 L 1268.777 455.926 L 1268.777 477.947 L 1290.798 477.947 L 1290.798 499.968 L 1312.819 499.968 L 1312.819 610.074 L 1268.777 610.074 L 1268.777 566.032 L 1202.713 566.032 L 1202.713 610.074 Z  M 1202.713 499.968 L 1202.713 544.011 L 1268.777 544.011 L 1268.777 499.968 L 1246.755 499.968 L 1246.755 477.947 L 1224.734 477.947 L 1224.734 499.968 L 1202.713 499.968 Z  M 1444.947 610.074 L 1400.904 610.074 L 1400.904 477.947 L 1356.862 477.947 L 1356.862 455.926 L 1488.989 455.926 L 1488.989 477.947 L 1444.947 477.947 L 1444.947 610.074 Z  M 1555.053 610.074 L 1511.011 610.074 L 1511.011 455.926 L 1643.138 455.926 L 1643.138 477.947 L 1665.16 477.947 L 1665.16 544.011 L 1621.117 544.011 L 1621.117 566.032 L 1643.138 566.032 L 1643.138 588.053 L 1665.16 588.053 L 1665.16 610.074 L 1599.096 610.074 L 1599.096 588.053 L 1577.074 588.053 L 1577.074 566.032 L 1555.053 566.032 L 1555.053 610.074 Z  M 1555.053 477.947 L 1555.053 544.011 L 1599.096 544.011 L 1599.096 521.989 L 1621.117 521.989 L 1621.117 477.947 L 1555.053 477.947 Z  M 1841.33 610.074 L 1709.202 610.074 L 1709.202 588.053 L 1753.245 588.053 L 1753.245 477.947 L 1709.202 477.947 L 1709.202 455.926 L 1841.33 455.926 L 1841.33 477.947 L 1797.287 477.947 L 1797.287 588.053 L 1841.33 588.053 L 1841.33 610.074 Z  M 1907.394 610.074 L 1863.351 610.074 L 1863.351 566.032 L 1885.372 566.032 L 1885.372 544.011 L 1907.394 544.011 L 1907.394 521.989 L 1885.372 521.989 L 1885.372 499.968 L 1863.351 499.968 L 1863.351 455.926 L 1907.394 455.926 L 1907.394 499.968 L 1929.415 499.968 L 1929.415 521.989 L 1951.436 521.989 L 1951.436 499.968 L 1973.457 499.968 L 1973.457 455.926 L 2017.5 455.926 L 2017.5 499.968 L 1995.479 499.968 L 1995.479 521.989 L 1973.457 521.989 L 1973.457 544.011 L 1995.479 544.011 L 1995.479 566.032 L 2017.5 566.032 L 2017.5 610.074 L 1973.457 610.074 L 1973.457 566.032 L 1951.436 566.032 L 1951.436 544.011 L 1929.415 544.011 L 1929.415 566.032 L 1907.394 566.032 L 1907.394 610.074 Z " fill-rule="evenodd" fill="rgb(255,255,255)"/></svg>